<svg width="157" height="138" viewBox="0 0 157 138" fill="none" xmlns="http://www.w3.org/2000/svg">
<path d="M8.72803 129.375L0.616678 126.183C0.037102 127.626 -0.138304 129.196 0.108947 130.728C0.356199 132.26 1.01695 133.698 2.02155 134.891C3.02615 136.083 4.33738 136.985 5.81702 137.502C7.29666 138.018 8.88991 138.131 10.4288 137.827L8.72803 129.375ZM49.7732 121.302L53.9074 113.703L51.1425 112.237L48.0724 112.841L49.7732 121.302ZM22.8924 94.1589L31.0037 97.3502L32.4254 93.7794L30.7159 90.3381L22.8924 94.1589ZM139.556 68.9998C139.556 96.9965 114.673 120.75 82.6024 120.75V138C123.081 138 157 107.692 157 68.9998H139.556ZM25.6572 68.9998C25.6572 41.0032 50.5494 17.25 82.6111 17.25V0C42.1328 0 8.20472 30.3082 8.20472 68.9998H25.6572ZM82.6111 17.25C114.673 17.25 139.556 41.0032 139.556 68.9998H157C157 30.3082 123.089 0 82.6111 0V17.25ZM82.6024 120.75C72.0925 120.75 62.3065 118.162 53.9074 113.703L45.639 128.892C57.011 134.906 69.706 138.036 82.6024 138V120.75ZM10.4288 137.827L51.474 129.754L48.0724 112.841L7.02726 120.914L10.4288 137.836V137.827ZM30.7159 90.3381C27.3848 83.7071 25.6591 76.4039 25.6572 68.9998H8.20472C8.20472 79.3498 10.6643 89.1651 15.0601 97.9798L30.7159 90.3381ZM14.7897 90.9677L0.616678 126.192L16.8219 132.557L30.9863 97.3415L14.781 90.9677H14.7897Z" fill="black" fill-opacity="0.5"/>
<path d="M52.5 77C57.1944 77 61 73.4183 61 69C61 64.5817 57.1944 61 52.5 61C47.8056 61 44 64.5817 44 69C44 73.4183 47.8056 77 52.5 77Z" fill="black" fill-opacity="0.5"/>
<path d="M82.5 77C87.1944 77 91 73.4183 91 69C91 64.5817 87.1944 61 82.5 61C77.8056 61 74 64.5817 74 69C74 73.4183 77.8056 77 82.5 77Z" fill="black" fill-opacity="0.5"/>
<path d="M113 77C117.418 77 121 73.4183 121 69C121 64.5817 117.418 61 113 61C108.582 61 105 64.5817 105 69C105 73.4183 108.582 77 113 77Z" fill="black" fill-opacity="0.5"/>
</svg>
