<svg width="142" height="149" viewBox="0 0 142 149" fill="none" xmlns="http://www.w3.org/2000/svg">
<path d="M59.9037 3.88683C63.0507 1.37092 66.9627 0 70.9949 0C75.0272 0 78.9392 1.37092 82.0862 3.88683L135.336 46.4005C139.545 49.7611 142 54.8526 142 60.2376V131.286C142 135.984 140.13 140.49 136.801 143.812C133.472 147.134 128.958 149 124.25 149H88.75C86.7325 149 84.7976 148.2 83.3709 146.776C81.9443 145.353 81.1429 143.422 81.1429 141.408V88.2663H60.8571V141.408C60.8571 143.422 60.0557 145.353 58.6291 146.776C57.2024 148.2 55.2675 149 53.25 149H17.75C13.0424 149 8.52763 147.134 5.19885 143.812C1.87008 140.49 0 135.984 0 131.286V60.2275C0 54.8526 2.45457 49.7611 6.66386 46.4005L59.9037 3.88683ZM72.5823 15.74C72.133 15.382 71.575 15.1869 71 15.1869C70.425 15.1869 69.867 15.382 69.4177 15.74L16.1677 58.2537C15.8694 58.4914 15.6287 58.7933 15.4636 59.1368C15.2985 59.4803 15.2133 59.8566 15.2143 60.2376V131.286C15.2143 132.683 16.3503 133.817 17.75 133.817H45.6429V80.6745C45.6429 78.6611 46.4443 76.7301 47.8709 75.3064C49.2976 73.8826 51.2325 73.0828 53.25 73.0828H88.75C90.7675 73.0828 92.7024 73.8826 94.1291 75.3064C95.5557 76.7301 96.3571 78.6611 96.3571 80.6745V133.817H124.25C124.923 133.817 125.567 133.55 126.043 133.075C126.519 132.601 126.786 131.957 126.786 131.286V60.2275C126.785 59.8482 126.699 59.4739 126.534 59.1322C126.369 58.7906 126.129 58.4903 125.832 58.2537L72.5823 15.74Z" fill="#FEB800"/>
</svg>
